<?xml version="1.0" encoding="UTF-8" standalone="no"?>
<svg
   xmlns:dc="http://purl.org/dc/elements/1.1/"
   xmlns:cc="http://creativecommons.org/ns#"
   xmlns:rdf="http://www.w3.org/1999/02/22-rdf-syntax-ns#"
   xmlns:svg="http://www.w3.org/2000/svg"
   xmlns="http://www.w3.org/2000/svg"
   xmlns:xlink="http://www.w3.org/1999/xlink"
   xmlns:sodipodi="http://sodipodi.sourceforge.net/DTD/sodipodi-0.dtd"
   xmlns:inkscape="http://www.inkscape.org/namespaces/inkscape"
   version="1.1"
   id="Layer_1"
   x="0px"
   y="0px"
   width="1.75in"
   height="1.75in"
   viewBox="0 0 168 168"
   xml:space="preserve"
   sodipodi:docname="Rebel_Alliance_logo_black_to_red_fade.svg"
   inkscape:version="1.0.1 (3bc2e813f5, 2020-09-07)"
   inkscape:export-filename="C:\Private\Inkscape\StarWars\Rebel_Alliance_logo_black_to_red_fade.png"
   inkscape:export-xdpi="600"
   inkscape:export-ydpi="600"><metadata
   id="metadata11"><rdf:RDF><cc:Work
       rdf:about=""><dc:format>image/svg+xml</dc:format><dc:type
         rdf:resource="http://purl.org/dc/dcmitype/StillImage" /><dc:title /></cc:Work></rdf:RDF></metadata><defs
   id="defs9"><linearGradient
     inkscape:collect="always"
     id="linearGradient2747"><stop
       style="stop-color:#412525;stop-opacity:1"
       offset="0"
       id="stop2743" /><stop
       style="stop-color:#ff0000;stop-opacity:1"
       offset="1"
       id="stop2745" /></linearGradient><radialGradient
     inkscape:collect="always"
     xlink:href="#linearGradient2747"
     id="radialGradient2749"
     cx="153.457"
     cy="183.6817"
     fx="153.457"
     fy="183.6817"
     r="144.47868"
     gradientTransform="matrix(0.72276349,0.15523755,-0.28878518,1.344542,92.565064,-83.590731)"
     gradientUnits="userSpaceOnUse" /><linearGradient
     inkscape:collect="always"
     xlink:href="#linearGradient2747"
     id="linearGradient2807"
     gradientUnits="userSpaceOnUse"
     x1="6.354466"
     y1="182.00563"
     x2="295.31183"
     y2="180.8071" /></defs><sodipodi:namedview
   pagecolor="#ffffff"
   bordercolor="#666666"
   borderopacity="1"
   objecttolerance="10"
   gridtolerance="10"
   guidetolerance="10"
   inkscape:pageopacity="0"
   inkscape:pageshadow="2"
   inkscape:window-width="1920"
   inkscape:window-height="1010"
   id="namedview7"
   showgrid="false"
   units="in"
   inkscape:document-units="in"
   inkscape:zoom="4.8468694"
   inkscape:cx="84"
   inkscape:cy="85.615829"
   inkscape:window-x="-7"
   inkscape:window-y="-7"
   inkscape:window-maximized="1"
   inkscape:current-layer="Layer_1"
   inkscape:document-rotation="0" />
<g
   id="g4"
   transform="matrix(0.50180481,0,0,0.50180481,8.311317,8.9796791)"
   style="fill:url(#radialGradient2749);fill-opacity:1;stroke:#000000;stroke-opacity:1;stroke-width:1.99280672;stroke-miterlimit:4;stroke-dasharray:none">
	<path
   d="M 7.42,145.986 C 9.185,99.193 32.899,56.035 76.25,27.516 c 0.128,0.048 1.251,-0.361 0.738,0.61 -3.434,3.184 -65.172,76.114 -8.344,133.68 0,0 29.858,28.704 53.011,1.468 0,0 22.847,-29.577 -0.289,-74.413 0,0 -5.856,-14.64 -26.955,-23.721 l 16.992,-18.748 c 0,0 14.359,6.161 25.478,22.871 0,0 0.593,-17.593 -12.884,-36.34 l 26.345,-29.89 26.08,29.609 c 0,0 -11.993,16.991 -12.876,36.902 0,0 8.191,-13.477 25.776,-23.151 l 16.686,18.748 c 0,0 -16.045,5.287 -26.794,23.529 -9.242,16.902 -16.357,53.05 0.416,75.223 0,0 18.772,26.618 51.792,-1.571 0,0 60.712,-54.399 -6.226,-133.048 0,0 -3.658,-3.233 0.449,-1.476 29.586,21.54 65.012,49.946 68.67,120.837 -1.444,85.966 -59.012,147.334 -143.074,147.334 C 68.934,295.968 4.95,227.283 7.42,145.986"
   id="path2"
   style="fill:url(#linearGradient2807);fill-opacity:1;stroke:#000000;stroke-opacity:1;stroke-width:1.99280672;stroke-miterlimit:4;stroke-dasharray:none" />
</g>
</svg>
